<svg id="Layer_1" data-name="Layer 1" xmlns="http://www.w3.org/2000/svg" viewBox="0 0 29.24 24.08"><defs><style>.cls-1{fill:#262626;stroke:#282828;stroke-width:0.3px;}</style></defs><path class="cls-1" d="M12,1a1.35,1.35,0,0,0-.54,2.64h0L24.43,7.31l.35.1-.32.18L1.4,20.37l-.16.1a1.35,1.35,0,0,0,1.47,2.26L25.77,10l.31-.18-.1.35L22.26,23l-.05.21a1.35,1.35,0,0,0,2.64.54l4.74-16.4h0a1,1,0,0,0,0-.17h0v0s0,0,0-.07h0V7h0a.53.53,0,0,0,0-.13s0,0,0-.06h0l0-.12a.14.14,0,0,0,0-.06h0a.36.36,0,0,0,0-.11l-.06-.12Zm0,0,.2.05L28.66,5.71a1.25,1.25,0,0,1,.27.1l.07.05h0l0,0,.09.06h0l.06,0,.08.07h0l.05.06.06.09h0l.05.06Z" transform="translate(-0.55 -0.83)"/></svg>