<svg id="Layer_1" data-name="Layer 1" xmlns="http://www.w3.org/2000/svg" viewBox="0 0 15.07 15.31"><defs><style>.cls-1{fill:#fff;}</style></defs><path class="cls-1" d="M11.09.94l.46.06a4.36,4.36,0,0,1,1.79.56,1.66,1.66,0,0,1,.38.32.5.5,0,0,1,0,.58,2.15,2.15,0,0,1-.53.63,3.38,3.38,0,0,1-1.79.84A2.92,2.92,0,0,1,9.8,3.66a4.66,4.66,0,0,1-1.44-1,.21.21,0,0,0-.13-.07l-.92-.19a2,2,0,0,0-1.66.37s-.05,0-.09.06a.15.15,0,0,1-.2-.06.17.17,0,0,1,0-.22A1.85,1.85,0,0,1,6,2.15a2.41,2.41,0,0,1,1.48-.1c.27.07.55.12.83.17a.14.14,0,0,0,.11-.05,5,5,0,0,1,1.21-.88A3,3,0,0,1,10.79,1a.05.05,0,0,0,0,0ZM8.87,2.62v0l0,0a4.18,4.18,0,0,0,1,.69,2.62,2.62,0,0,0,1.16.26A2.94,2.94,0,0,0,12.79,3a2.24,2.24,0,0,0,.65-.65c.1-.16.1-.23,0-.35a2.21,2.21,0,0,0-.45-.3,4.78,4.78,0,0,0-1.48-.4,3.09,3.09,0,0,0-.86,0A3.4,3.4,0,0,0,9.15,2c-.12.08-.22.18-.34.27l0,0,1.7,0,.09,0,.71-.46c.11-.07.2-.06.26,0s0,.19-.08.26l-.23.15a4.24,4.24,0,0,0,.51,0l.7-.09c.14,0,.23.08.2.21a.16.16,0,0,1-.16.12l-.37,0v0l.21.13c.1.07.13.16.08.24a.17.17,0,0,1-.25.05l-.58-.36-.07,0-.78.06-.47,0,0,0,.08.06.47.43c.09.09.11.19,0,.27a.19.19,0,0,1-.27,0l-.75-.7a.21.21,0,0,0-.1-.06Z" transform="translate(-2.57 -0.94)"/><path class="cls-1" d="M10.87,16.25h-.08a.57.57,0,0,1-.57-.61,3,3,0,0,1,.27-1.31A3,3,0,0,1,12,12.71a3.48,3.48,0,0,1,1.52-.34,4.66,4.66,0,0,1,1,.09.2.2,0,0,0,.11,0l.87-.39a2,2,0,0,0,1.12-1.26l0-.11a.15.15,0,0,1,.19-.08c.08,0,.13.07.12.15a1.74,1.74,0,0,1-.05.22,2.31,2.31,0,0,1-1.34,1.41c-.25.11-.49.23-.74.33a.22.22,0,0,0-.13.19,4.46,4.46,0,0,1-.52,1.5,2.91,2.91,0,0,1-1.09,1.11,5.48,5.48,0,0,1-1.74.7l-.3,0Zm2.05-2.68-.78-.1a.16.16,0,0,1-.15-.18c0-.1.09-.16.23-.14l1,.12a.29.29,0,0,0,.24-.06c.07-.06.15-.1.22-.15l.49-.33a4.52,4.52,0,0,0-1,0,2.79,2.79,0,0,0-1.36.51,2.87,2.87,0,0,0-1.06,1.56,2,2,0,0,0-.11.88c0,.14.06.2.2.21a2.36,2.36,0,0,0,.53,0,4.69,4.69,0,0,0,1.52-.58,2.44,2.44,0,0,0,.71-.53,3.26,3.26,0,0,0,.73-1.34l.12-.43,0,0-1.4,1-.05.07-.3.79c-.05.12-.14.17-.24.13s-.12-.13-.07-.25l.09-.26-.41.35-.5.46a.17.17,0,0,1-.21,0,.15.15,0,0,1-.07-.18.26.26,0,0,1,.07-.11l.26-.26-.31,0a.16.16,0,0,1-.16-.16.16.16,0,0,1,.14-.17l.67-.05a.42.42,0,0,0,.12,0l.65-.54Z" transform="translate(-2.57 -0.94)"/><path class="cls-1" d="M2.57,9.82l.06-.25A2.39,2.39,0,0,1,3,8.78l.41-.73a.12.12,0,0,0,0-.13,4.39,4.39,0,0,1-.51-1.87A2.66,2.66,0,0,1,3,5,5.18,5.18,0,0,1,4.11,3.22a2.07,2.07,0,0,1,.5-.38A.52.52,0,0,1,5.33,3a2.25,2.25,0,0,1,.43.75A3.35,3.35,0,0,1,5.9,5.85a3.25,3.25,0,0,1-1,1.51,4.84,4.84,0,0,1-1.15.75.22.22,0,0,0-.1.09c-.16.28-.33.56-.48.84A2,2,0,0,0,3,10.75a.27.27,0,0,1,0,.12.17.17,0,0,1-.14.14.16.16,0,0,1-.18-.11l-.15-.55a.24.24,0,0,0,0-.08ZM3.92,7.64v0c.19-.13.38-.25.56-.39a3.14,3.14,0,0,0,1-1.33A2.84,2.84,0,0,0,5.51,4a2.26,2.26,0,0,0-.43-.81c-.11-.13-.18-.15-.32-.07a2.36,2.36,0,0,0-.36.26A4.77,4.77,0,0,0,3.3,5.22a2.51,2.51,0,0,0-.07,1.33,4.75,4.75,0,0,0,.33,1l0-.06.54-1.59a.27.27,0,0,0,0-.09C4.07,5.56,4,5.29,3.92,5c0-.12,0-.21.11-.24a.17.17,0,0,1,.21.15c0,.09,0,.19.08.29a.34.34,0,0,1,0-.08c.07-.38.15-.75.23-1.13a.16.16,0,0,1,.18-.14c.11,0,.16.1.14.22s0,.24-.07.38l.24-.2a.17.17,0,0,1,.22.25L4.78,5a.18.18,0,0,0-.07.1l-.18.71c0,.16-.09.32-.14.5l.1,0,.58-.32a.16.16,0,0,1,.2,0,.14.14,0,0,1,.05.18.38.38,0,0,1-.11.11l-.91.5s-.06,0-.07.08C4.12,7.06,4,7.35,3.92,7.64Z" transform="translate(-2.57 -0.94)"/><path class="cls-1" d="M17.65,9.17a4.2,4.2,0,0,1-.08.47,2,2,0,0,1-.17.47.51.51,0,0,1-.61.28,2.73,2.73,0,0,1-1.11-.57,3.15,3.15,0,0,1-1.15-1.69,3.52,3.52,0,0,1,.07-1.85,4.46,4.46,0,0,1,.42-1,.2.2,0,0,0,0-.13c0-.32-.06-.65-.1-1a2,2,0,0,0-.89-1.46.35.35,0,0,1-.1-.11A.14.14,0,0,1,14,2.46a.17.17,0,0,1,.2,0,2,2,0,0,1,.52.45,2.34,2.34,0,0,1,.56,1.45c0,.26.06.51.1.77a.13.13,0,0,0,.08.1,5,5,0,0,1,1.26.93,3,3,0,0,1,.82,1.69c0,.25.06.5.09.75,0,0,0,0,0,.05Zm-2.49-3.4,0,.06c-.07.23-.17.45-.23.67a3,3,0,0,0,0,1.64A2.86,2.86,0,0,0,16,9.63a2.06,2.06,0,0,0,.85.42c.16,0,.23,0,.29-.14a2.14,2.14,0,0,0,.15-.55A4.26,4.26,0,0,0,17.23,8a3,3,0,0,0-.36-1.09A3.77,3.77,0,0,0,15.5,5.63h0a0,0,0,0,0,0,0L16,7.29a.1.1,0,0,0,0,.07l.66.54a.18.18,0,0,1,.05.26.19.19,0,0,1-.26,0L16.27,8c.1.26.2.5.31.75l.19.39a.17.17,0,0,1-.3.14.47.47,0,0,1,0-.1c-.05-.09-.09-.18-.14-.28l-.07.3a.17.17,0,0,1-.2.12.15.15,0,0,1-.12-.19L16,8.46a.33.33,0,0,0,0-.14l-.24-.58c-.07-.19-.14-.38-.22-.57a.36.36,0,0,0,0,.09c-.1.2-.19.4-.28.6A.17.17,0,1,1,15,7.72l0,0c.14-.31.29-.61.43-.92,0,0,0-.06,0-.09C15.33,6.37,15.25,6.07,15.16,5.77Z" transform="translate(-2.57 -0.94)"/><path class="cls-1" d="M9.74,16a2.32,2.32,0,0,1-1.6-.65A1.29,1.29,0,0,1,8,15.21l-.54-.6a.28.28,0,0,0-.26-.09,4.3,4.3,0,0,1-1.56,0,2.9,2.9,0,0,1-1.45-.73A5.28,5.28,0,0,1,3,12.34a1.87,1.87,0,0,1-.21-.6.53.53,0,0,1,.32-.61,2.3,2.3,0,0,1,.86-.2,3.25,3.25,0,0,1,2.23.63A3.41,3.41,0,0,1,7.33,13.2a5,5,0,0,1,.23,1s0,.06,0,.08c.25.26.49.54.74.8a2,2,0,0,0,1.51.59c.14,0,.21.06.21.17a.16.16,0,0,1-.13.16H9.74ZM7.17,13.9a.15.15,0,0,1,0-.06,4,4,0,0,0-.32-.94,2.67,2.67,0,0,0-1.28-1.35A3.18,3.18,0,0,0,4,11.26a2.12,2.12,0,0,0-.74.15c-.16.07-.2.12-.17.29a1.88,1.88,0,0,0,.14.42,4.65,4.65,0,0,0,1,1.26,2.89,2.89,0,0,0,.89.63,3.78,3.78,0,0,0,1.53.23l.31,0v0l-.06,0-1.33-1a.15.15,0,0,0-.1,0l-.83-.05c-.13,0-.2-.08-.19-.18s.08-.16.21-.15H5l0,0-1-.55,0,0a.15.15,0,0,1-.07-.21.15.15,0,0,1,.22-.08c.12.05.23.12.37.19a2.93,2.93,0,0,1-.12-.28.16.16,0,0,1,.09-.21.16.16,0,0,1,.22.08c.08.2.16.4.25.6a.5.5,0,0,0,.08.12l1,.63L6,13c0-.25-.09-.49-.14-.73s0-.22.14-.23.17,0,.19.17.11.51.14.77a.58.58,0,0,0,.32.5l0,0Z" transform="translate(-2.57 -0.94)"/></svg>